<svg version="1.1" xmlns="http://www.w3.org/2000/svg" xmlns:xlink="http://www.w3.org/1999/xlink" x="0px" y="0px" width="170" height="27" viewBox="0 0 180 27" enable-background="new 0 0 180 27" xml:space="preserve" class="logo-homeserve">
<defs><style>.cls-1{fill:#e43d30 !important;}</style></defs><g id="Layer_2" data-name="Layer 2"><g id="Layer_1-2" data-name="Layer 1"><path class="cls-1" d="M171.82,1.52a3.56,3.56,0,0,1,3.54,3.61,3.53,3.53,0,1,1-7.05,0A3.54,3.54,0,0,1,171.82,1.52Zm0,6.55a2.84,2.84,0,0,0,2.82-2.94,2.81,2.81,0,1,0-5.61,0A2.83,2.83,0,0,0,171.82,8.07Zm-1.21-4.82h1.44a1.09,1.09,0,0,1,1.17,1.14,1,1,0,0,1-.68,1v0a1.08,1.08,0,0,1,.13.2L173.38,7h-.77l-.69-1.44h-.61V7h-.7ZM171.91,5a.58.58,0,0,0,.6-.63.56.56,0,0,0-.6-.61h-.6V5Z" fill="#E43D30"></path><path class="cls-1" d="M46.41,10.68h-.07a5.46,5.46,0,0,0,.07-.79V8.81A1.29,1.29,0,0,0,45,7.35H43.64a1.29,1.29,0,0,0-1.42,1.46V23.59A1.27,1.27,0,0,0,43.64,25h1.52a1.28,1.28,0,0,0,1.43-1.45V17.1c0-3,1.45-6.14,4.58-6.14,2.08,0,2.35,1.63,2.35,3.54v9.09A1.3,1.3,0,0,0,55,25h1.53a1.27,1.27,0,0,0,1.42-1.45V17.1C57.93,14,59.45,11,62.44,11c2,0,2.42,1.53,2.42,3.54v9.09A1.29,1.29,0,0,0,66.32,25h1.49a1.3,1.3,0,0,0,1.46-1.45V13.67c0-4.65-2.12-6.73-5.79-6.73a7,7,0,0,0-6,3.64h-.07a4.9,4.9,0,0,0-5.16-3.64,6.82,6.82,0,0,0-5.8,3.74M20.15,23.59V1.87A1.29,1.29,0,0,0,18.73.42H17.17a1.3,1.3,0,0,0-1.46,1.45v8.74A11.39,11.39,0,0,1,10.27,12a11.34,11.34,0,0,1-5.83-1.66V1.87A1.29,1.29,0,0,0,3,.42H1.42A1.29,1.29,0,0,0,0,1.87V23.59A1.27,1.27,0,0,0,1.42,25H3a1.27,1.27,0,0,0,1.42-1.45v-9A13.4,13.4,0,0,0,10.27,16a13.29,13.29,0,0,0,5.44-1.21v8.77A1.29,1.29,0,0,0,17.17,25h1.56a1.27,1.27,0,0,0,1.42-1.45M36.46,16.2A5.26,5.26,0,1,1,26,16.2a5.26,5.26,0,1,1,10.51,0M31.18,6.94c-5.37,0-9.71,3.85-9.71,9.26s4.34,9.26,9.71,9.26,9.75-3.82,9.75-9.26-4.37-9.26-9.75-9.26m43.31,8.29a4.3,4.3,0,0,1,3.11-4.88c1.94-.52,3.75.5,4.46,2.85a10,10,0,0,0-3.83.35,11.76,11.76,0,0,0-3.74,1.68m13,6.37a1.32,1.32,0,0,0,0-2L86.85,19c-.64-.65-1-.72-1.74-.1a7.72,7.72,0,0,1-3.48,2.33,5.14,5.14,0,0,1-6.55-3.42h0A14.87,14.87,0,0,0,81,17.27a11.09,11.09,0,0,0,5.18-2.58h0a1.55,1.55,0,0,0,.45-1.47c-1.26-4.69-4.9-7.42-9.76-6.12-5.12,1.38-7.69,6-6.28,11.27a9.07,9.07,0,0,0,11.58,6.49,11.22,11.22,0,0,0,5.34-3.26M93.26,6.9c0-1.66,1.46-2.77,3.75-2.77a8,8,0,0,1,4.26,1.35c.73.38,1.46.52,2-.49l.63-1.14a1.38,1.38,0,0,0-.46-2A11.46,11.46,0,0,0,97.08,0c-4.68,0-8.29,2.81-8.29,7.15,0,7.66,11.48,6.69,11.48,11.37,0,1.67-1.39,2.81-3.68,2.81a8.66,8.66,0,0,1-5-1.8c-.87-.49-1.46-.45-2,.31L88.82,21A1.29,1.29,0,0,0,89,23a13,13,0,0,0,7.56,2.5c5.17,0,8.15-3.3,8.15-7.29,0-7.83-11.48-6.66-11.48-11.27M118,14a9.9,9.9,0,0,0-3.81-.48,11.6,11.6,0,0,0-4,.83c.32-2.37,1.84-4,4.09-4.1,2-.09,3.56,1.3,3.74,3.75m4.42,1c-.21-4.85-3.18-8.3-8.2-8.08-5.3.23-8.81,4.2-8.57,9.64a9.06,9.06,0,0,0,9.9,8.84,11.12,11.12,0,0,0,5.91-2,1.31,1.31,0,0,0,.41-2l-.45-.67c-.49-.78-.83-.93-1.68-.48a7.71,7.71,0,0,1-3.9,1.52A5.15,5.15,0,0,1,110.16,17h0a15.11,15.11,0,0,0,5.85.71,11.14,11.14,0,0,0,5.62-1.4h0A1.53,1.53,0,0,0,122.4,15m12-5V8.67c0-1-.35-1.46-1.32-1.46-2.5,0-4.44,2.36-5.13,4.48h-.07a7.77,7.77,0,0,0,.1-1.22V8.81a1.32,1.32,0,0,0-1.46-1.46h-1.35a1.29,1.29,0,0,0-1.42,1.46V23.59A1.27,1.27,0,0,0,125.15,25h1.53a1.27,1.27,0,0,0,1.42-1.45V17.9c0-3.23,1.56-6.42,4.79-6.42A1.34,1.34,0,0,0,134.38,10M152,9c.35-1-.1-1.67-1.18-1.67H149.2a1.54,1.54,0,0,0-1.63,1.22l-3.29,9.74a22.46,22.46,0,0,0-.63,2.67h-.07a25.49,25.49,0,0,0-.66-2.67l-3.29-9.74A1.55,1.55,0,0,0,138,7.35h-1.63c-1.08,0-1.49.66-1.15,1.67l5.41,14.84A1.51,1.51,0,0,0,142.26,25H145a1.53,1.53,0,0,0,1.63-1.18Zm11.57,5a9.9,9.9,0,0,0-3.81-.48,11.6,11.6,0,0,0-4,.83c.32-2.37,1.84-4,4.09-4.1,2-.09,3.56,1.3,3.74,3.75M168,15c-.21-4.85-3.18-8.3-8.2-8.08-5.3.23-8.81,4.2-8.57,9.64a9.06,9.06,0,0,0,9.9,8.84,11.2,11.2,0,0,0,5.92-2,1.32,1.32,0,0,0,.4-2l-.45-.67c-.49-.78-.83-.93-1.68-.48a7.71,7.71,0,0,1-3.9,1.52A5.15,5.15,0,0,1,155.76,17h0a15.09,15.09,0,0,0,5.85.71,11.14,11.14,0,0,0,5.62-1.4h0A1.53,1.53,0,0,0,168,15" fill="#E43D30"></path></g></g></svg>