<svg xmlns:xlink="http://www.w3.org/1999/xlink" xmlns="http://www.w3.org/2000/svg" class="logo-header-logo" width="72" height="79" viewBox="0 0 72 79" fill="none"><path d="M49.2188 37.4775V0.857041C49.2188 0.384467 49.6032 0 50.0758 0H70.789C71.2615 0 71.646 0.384467 71.646 0.857041V14.4175H61.9102V7.86957H58.9586V30.2888H61.9102V23.7328H60.4364V16.7924H71.65V37.4775C71.65 37.9501 71.2655 38.3346 70.793 38.3346H50.0798C49.5992 38.3346 49.2188 37.9501 49.2188 37.4775Z" fill="#FFFFFF"></path><path d="M37.7857 29.1514H36.6683L34.0852 0H19.7438C19.2712 0 18.8867 0.384467 18.8867 0.857041V37.4775C18.8867 37.9501 19.2712 38.3346 19.7438 38.3346H28.7227L27.8817 10.0442H28.999L31.5061 38.3346H46.0197C46.4923 38.3346 46.8768 37.9501 46.8768 37.4775V0.857041C46.8768 0.384467 46.4923 0 46.0197 0H36.9287L37.7857 29.1514Z" fill="#FFFFFF"></path><path d="M0 0.858923V37.4794C0 37.952 0.384467 38.3365 0.857042 38.3365H16.1156C16.5882 38.3365 16.9726 37.952 16.9726 37.4794V30.2667H9.96812V22.317H16.5521V15.1082H9.96812V7.87545H16.9726V0.862932C16.9726 0.390357 16.5882 0.00589038 16.1156 0.00589038H0.857042C0.384467 0.00188551 0 0.386349 0 0.858923Z" fill="#FFFFFF"></path><path d="M0.857041 78.9948H9.24723C9.71981 78.9948 10.1043 78.6103 10.1043 78.1377V41.5172C10.1043 41.0446 9.71981 40.6602 9.24723 40.6602H0.857041C0.384467 40.6602 0 41.0446 0 41.5172V78.1377C0 78.6143 0.384467 78.9948 0.857041 78.9948Z" fill="#FFFFFF"></path><path d="M31.3462 69.7093H30.2289V69.6492L27.6538 40.666H13.3043C12.8317 40.666 12.4473 41.0505 12.4473 41.5231V78.1436C12.4473 78.6161 12.8317 79.0006 13.3043 79.0006H22.2872L21.4422 50.6061H22.5596L25.0186 79.0006H39.5843C40.0568 79.0006 40.4413 78.6161 40.4413 78.1436V41.5231C40.4413 41.0505 40.0568 40.666 39.5843 40.666H30.5212L31.3462 69.7093Z" fill="#FFFFFF"></path><path d="M42.4551 41.5172V78.1377C42.4551 78.6103 42.8395 78.9948 43.3121 78.9948H58.5707C59.0432 78.9948 59.4277 78.6103 59.4277 78.1377V70.9249H52.4232V62.9753H59.0072V55.7665H52.4232V48.5337H59.4277V41.5172C59.4277 41.0446 59.0432 40.6602 58.5707 40.6602H43.3121C42.8395 40.6642 42.4551 41.0446 42.4551 41.5172Z" fill="#FFFFFF"></path><path d="M61.6309 45.4638C61.6309 48.103 63.7775 50.2497 66.4167 50.2497C69.0559 50.2497 71.2145 48.103 71.2145 45.4638C71.2145 42.8246 69.0559 40.666 66.4167 40.666C63.7775 40.666 61.6309 42.8246 61.6309 45.4638ZM62.6721 45.4638C62.6721 43.3853 64.3542 41.7193 66.4167 41.7193C68.4952 41.7193 70.1612 43.3853 70.1612 45.4638C70.1612 47.5304 68.4952 49.2084 66.4167 49.2084C64.3542 49.2084 62.6721 47.5304 62.6721 45.4638ZM64.6305 47.6345C64.6305 47.7666 64.7386 47.8868 64.8828 47.8868H65.5396C65.6838 47.8868 65.7919 47.7666 65.7919 47.6345V46.2087H66.4848L67.0695 47.7026C67.1095 47.7947 67.2016 47.8868 67.3098 47.8868H68.0306C68.2189 47.8868 68.339 47.7146 68.2589 47.5263L67.6462 46.1407C68.0587 45.9404 68.5913 45.5439 68.5913 44.6629C68.5913 43.6216 67.7783 43.0089 66.9493 43.0089H64.8828C64.7386 43.0089 64.6305 43.129 64.6305 43.2612V47.6345ZM65.7519 45.2235V44.1302H66.8051C67.1255 44.1302 67.3498 44.3545 67.3498 44.6749C67.3498 44.9833 67.1255 45.2195 66.8051 45.2195H65.7519V45.2235Z" fill="#FFFFFF"></path></svg>