<svg xmlns="http://www.w3.org/2000/svg" xmlns:xlink="http://www.w3.org/1999/xlink" width="94" height="94" viewBox="0 0 94 94" version="1.1">
    <defs>
        <linearGradient x1="17.8692471%" y1="92.3460295%" x2="89.0475094%" y2="0%" id="linearGradient-1">
            <stop stop-color="#FF0066" offset="0%"/>
            <stop stop-color="#A445B2" offset="100%"/>
        </linearGradient>
    </defs>
    <g id="Page-1" stroke="none" stroke-width="1" fill="none" fill-rule="evenodd">
        <g id="Group-13" fill="url(#linearGradient-1)">
            <path d="M79.647,13.54 L80.0487592,13.9428605 C88.3013716,22.31874 93.418254,33.7903333 93.496,46.459 L93.496,46.459 L93.496,47.038 L93.4851511,47.8070605 C92.9230949,73.1363827 72.21278,93.496 46.748,93.496 L46.748,93.496 L45.9749424,93.489737 C20.513493,93.0769112 4.97379915e-14,72.30782 4.97379915e-14,46.748 L4.97379915e-14,46.748 L0.0050023888,46.05724 C0.124921841,37.7824872 2.39594595,30.0298649 6.282,23.329 L6.282,23.329 L18.84,42.974 L18.749944,43.717376 C18.64268,44.71248 18.587,45.7232 18.587,46.748 L18.587,46.748 L18.5901144,47.1711244 C18.7684674,59.2793343 26.5891954,69.5331839 37.442,73.333 L37.442,73.333 L43.668,83.494 L45.966,87.245 L48.264,83.494 L54.123,73.931 L54.5082174,73.8237878 C66.2874438,70.4544715 74.909,59.6092043 74.909,46.748 L74.909,46.748 L74.901439,46.0904691 C74.8611975,44.3419259 74.661,42.6328889 74.317,40.976 L74.317,40.976 L76.976,36.636 L79.49,32.533 L71.061,32.533 L70.6909531,31.9187656 C70.3131875,31.3098125 69.9125,30.71675 69.491,30.14 L69.491,30.14 L79.647,13.54 Z M25.293,35.228 L46.046,68.586 L66.409,35.228 L74.678,35.228 L45.966,82.086 L17.254,35.228 L25.293,35.228 Z M82.445,3.804 L45.93,63.484 L27.145,32.479 L15.407,32.479 L11.051,25.742 L30.811,25.742 L46.199,49.835 L73.941,3.804 L82.445,3.804 Z M46.748,7.10542736e-15 C55.017,7.10542736e-15 62.782,2.15 69.521,5.917 L69.521,5.917 L59.917,21.851 L59.4427727,21.605498 C55.6280768,19.6763312 51.31568,18.587 46.748,18.587 L46.748,18.587 L46.1887933,18.59244 C40.7957922,18.6974522 35.7747,20.3181333 31.532,23.048 L31.532,23.048 L6.449,23.048 L6.70795351,22.6139765 C14.8930925,9.06216244 29.7607158,7.10542736e-15 46.748,7.10542736e-15 Z" id="Combined-Shape"/>
        </g>
    </g>
</svg>